/* XPM */
static char *m580[] = {
"48 48 99 2 0 0",
"   c #000000",
"!  c #010001",
"#  c #010100",
"$  c #010000",
"%  c #000100",
"&  c #000101",
"'  c #000001",
"(  c #271D11",
")  c #261D11",
"*  c #261D12",
"+  c #261E11",
",  c #271E11",
"-  c #271D12",
".  c #30271C",
"/  c #30281C",
"0  c #31281C",
"1  c #31271C",
"2  c #3B3127",
"3  c #3B3227",
"4  c #3A3227",
"5  c #3A3127",
"6  c #3A3128",
"7  c #453D32",
"8  c #443C32",
"9  c #4E463D",
":  c #4E473D",
";  c #4F473D",
"<  c #4E473C",
"=  c #585148",
">  c #585147",
"?  c #595148",
"@  c #625C53",
"A  c #020200",
"B  c #020002",
"C  c #625B52",
"D  c #000002",
"E  c #000202",
"F  c #625B53",
"G  c #6C665E",
"H  c #000200",
"I  c #020000",
"J  c #6C655D",
"K  c #6C665D",
"L  c #767068",
"M  c #767069",
"N  c #767169",
"O  c #757169",
"P  c #807A73",
"Q  c #807B74",
"R  c #7F7B73",
"S  c #807B73",
"T  c #807A74",
"U  c #8A857F",
"V  c #8A857E",
"W  c #89857E",
"X  c #94908A",
"Y  c #949089",
"Z  c #948F89",
"[  c #939089",
"]  c #948F8A",
"^  c #9E9994",
"_  c #9E9A94",
"`  c #9D9A95",
"a  c #9E9A95",
"b  c #9E9995",
"c  c #A8A4A0",
"d  c #A7A4A0",
"e  c #A8A5A0",
"f  c #A8A49F",
"g  c #B2AFAB",
"h  c #B2AFAA",
"i  c #B2AEAA",
"j  c #B1AEAA",
"k  c #B1AFAA",
"l  c #BCB8B5",
"m  c #BCB9B5",
"n  c #BCB9B6",
"o  c #BBB8B6",
"p  c #C6C3C0",
"q  c #C6C4C0",
"r  c #C5C3C0",
"s  c #C5C4C1",
"t  c #C6C4C1",
"u  c #C5C4C0",
"v  c #C5C3C1",
"w  c #D0CDCB",
"x  c #D0CECB",
"y  c #D9D8D6",
"z  c #DAD8D6",
"{  c #E3E3E1",
"|  c #E4E2E1",
"}  c #EEEDEB",
"~  c #EDECEC",
" ! c #F8F8F7",
"!! c #F8F7F7",
"#! c #F7F8F7",
"$! c #F7F7F7",
"%! c #F7F8F6",
"&! c None",
"&!&!&!&!&!&!&!&!&!&!&!&!&!&!&!&!&!&!&!&!&!&!&!&!&!&!&!&!&!&!&!&!&!&!&!&!&!&!&!&!&!&!&!&!&!&!&!&!",
"&!&!&!&!&!&!&!&!&!&!&!&!&!&!&!&!&!&!&!&!&!&!&!&!&!&!&!&!&!&!&!&!&!&!&!&!&!&!&!&!&!&!&!&!&!&!&!&!",
"&!&!&!&!&!&!&!&!&!&!&!&!&!&!&!&!&!&!&!&!&!&!&!&!&!&!&!&!&!&!&!&!&!&!&!&!&!&!&!&!&!&!&!&!&!&!&!&!",
"&!&!&!&!&!&!&!&!&!&!&!&!&!&!&!&!&!&!&!&!&!&!&!&!&!&!&!&!&!&!&!&!&!&!&!&!&!&!&!&!&!&!&!&!&!&!&!&!",
"&!&!&!&!&!&!&!&!&!&!&!&!&!&!&!&!&!&!&!&!&!&!&!&!&!&!&!&!&!&!&!&!&!&!&!&!&!&!&!&!&!&!&!&!&!&!&!&!",
"&!&!      &!&!&!&!&!      &!&!&!&!&!              &!&!&!&!          &!&!&!&!&!&!          &!&!&!",
"&!&!      &!&!&!&!&!      &!&!&!&!&!              &!&!&!              &!&!&!&!              &!&!",
"&!&!        &!&!&!        &!&!&!&!&!    &!&!&!&!&!&!&!      &!&!&!      &!&!&!    &!&!&!    &!&!",
"&!&!    &!  &!&!&!  &!    &!&!&!&!&!    &!&!&!&!&!&!&!    &!&!&!&!&!    &!&!    &!&!&!&!&!    &!",
"&!&!    &!    &!!   &!    &!&!&!&!&!    &!&!&!&!&!&!&!      &!&!&!&!    &!&!    &!&!&!&!&!    &!",
"&!&!    &!#   &!  $ &!    &!&!&!&!&!          % &!&!&!&!              &!&!&!    &!&!&!&!&!    &!",
"&!&!    &!&!      &!&!    &!&!&!&!&!            & &!&!&!            &!&!&!&!    &!&!&!&!&!    &!",
"&!&!    &!&!      &!&!    &!&!&!&!&!&!&!&!&!      &!&!    &!&!&!&!      &!&!    &!&!&!&!&!    &!",
"&!&!    &!&!&!  &!&!&!    &!&!&!&!&!&!&!&!&!&!    &!&!    &!&!&!&!&!    &!&!    &!&!&!&!&!    &!",
"&!&!    &!&!&!&!&!&!&!    &!&!&!&!&!&!&!&!&!&!    &!&!    &!&!&!&!&!    &!&!    # &!&!&!'     &!",
"&!&!    &!&!&!&!&!&!&!    &!&!&!&!    &!&!&!      &!&!      &!&!&!      &!&!$     &!&!&!    ! &!",
"&!&!    &!&!&!&!&!&!&!    &!&!&!&!              &!&!&!&!              &!&!&!&!              &!&!",
"&!&!    &!&!&!&!&!&!&!    &!&!&!&!            &!&!&!&!&!&!          &!&!&!&!&!&!          &!&!&!",
"&!&!&!&!&!&!&!&!&!&!&!&!&!&!&!&!&!&!&!&!&!&!&!&!&!&!&!&!&!&!&!&!&!&!&!&!&!&!&!&!&!&!&!&!&!&!&!&!",
"&!&!&!&!&!&!&!&!&!&!&!&!&!&!&!&!&!&!&!&!&!&!&!&!&!&!&!&!&!&!&!&!&!&!&!&!&!&!&!&!&!&!&!&!&!&!&!&!",
"&!&!&!&!&!&!&!&!&!&!&!&!&!&!&!&!&!&!&!&!&!&!&!&!&!&!&!&!&!&!&!&!&!&!&!&!&!&!&!&!&!&!&!&!&!&!&!&!",
"&!&!&!&!&!&!&!&!&!&!&!&!&!&!&!&!&!&!&!&!&!&!&!&!&!&!&!&!&!&!&!&!&!&!&!&!&!&!&!&!&!&!&!&!&!&!&!&!",
"&!&!&!&!&!&!&!&!&!&!&!&!&!&!&!&!&!&!&!&!&!&!&!&!&!&!&!&!&!&!&!&!&!&!&!&!&!&!&!&!&!&!&!&!&!&!&!&!",
"&!&!&!&!&!&!&!&!&!&!&!&!&!&!&!&!&!&!&!&!&!&!&!&!&!&!&!&!&!&!&!&!&!&!&!&!&!&!&!&!&!&!&!&!&!&!&!&!",
"&!( ) * ) * ) ) ) ) * * ( ) * + ) * , ) ) * ( ) * ) ) ( ) ( ( - ) ( ) ( ) ) ) ) ) - * ) ) * ( &!",
"&!. &!&!&!&!&!/ &!&!&!&!&!/ &!&!&!&!&!. &!&!&!&!&!. &!&!&!&!&!. &!&!&!&!&!/ &!&!&!&!&!0 &!&!1 &!",
"&!2 &!&!&!&!&!3 &!&!&!&!&!4 &!&!&!&!&!5 &!&!&!&!&!4 &!&!&!&!&!5 &!&!&!&!&!6 &!&!&!&!&!5 &!&!4 &!",
"&!7 &!&!&!&!&!8 &!&!&!&!&!8 &!&!&!&!&!8 &!&!&!&!&!7 &!&!&!&!&!8 &!&!&!&!&!8 &!&!&!&!&!8 &!&!8 &!",
"&!9 &!&!&!&!&!: &!&!&!&!&!: &!&!&!&!&!: &!&!&!&!&!; &!&!&!&!&!< &!&!&!&!&!: &!&!&!&!&!< &!&!: &!",
"&!= &!&!&!&!&!> &!&!&!&!&!= &!&!&!&!&!? &!&!&!&!&!= &!&!&!&!&!= &!&!&!&!&!> &!&!&!&!&!= &!&!> &!",
"&!@ &!&!A &!B C &!&!D &!&!C E A &!&!&!@ E &!&!&!B F &!&!&!&!&!F &!&!B A A @ A &!&!&!A F &!&!@ A ",
"A G   A H I H G H   H I D G   A D A   J D E E   A K E I A H E G A E   I E G E B D   A J     G D ",
"H L B I H H H M I I A     M E   B I E L B   I I I L I I D     N A D B I D O E   H     M     M A ",
"  P     I H H Q       H   R   D   I   Q D         S       B   Q   D       T   I I     Q     Q   ",
"E U         B V   A   A   W B   A     U A         U A B       U   A     E U           U     W E ",
"A X   A   A   Y I I       Z H B B D I [     A   E ] B A   E I Z I   D     X E B E B D Z   E Z   ",
"  ^ D D   D H _ I E H     `   B I A   a     B A A _   H A   H b D   A   I b B H I   A a D D _ I ",
"  c       H   d     I   I c H       H e I     I   f A I     D f       D   f   I D     c     c H ",
"  g E   B     g D     B   h     B     i   E A   E i   E   B   j       H   g     B     k     i   ",
"  l D E A B A m E   H   D m I A B   E m A E     A m A B B H E m   A D H E n A I   E A o B   m I ",
"  p p p q p p r D I     H s p t p q p u r q t q r q q p r t r p p p r r q p u r r p q v r p q D ",
"% % $       ' w & $ %   ' x                 % $ ' ! $   % $ % !   $ '   ' $ $           '       ",
"              y           z                                 # !       &               &         ",
"  $     & # # { #         | & #   # # ! #     !   ! # # #   #   #   #   $ $ # $ $ % #     &     ",
"! %   & '   & } $ % % % ' ~ % &   '   ! !   % ' '   ' % # # & !   % ! % & $       %     & & & $ ",
"& ' # ' '   $  !!!!!#!$!$!%!    '   $ ! & $ $ % ! % & $   ' %   !   ! % #   & $   '   %   '     ",
"                                                                                                ",
"% %   ! # # $ ! # & '     $ !     $   &     $   &     ' & & &   &       %     & '   # $         "
};
